<?xml version="1.0" standalone="no"?>
<!DOCTYPE svg PUBLIC "-//W3C//DTD SVG 20010904//EN"
 "http://www.w3.org/TR/2001/REC-SVG-20010904/DTD/svg10.dtd">
<svg version="1.0" xmlns="http://www.w3.org/2000/svg"
 width="1749.000000pt" height="1512.000000pt" viewBox="0 0 1749.000000 1512.000000"
 preserveAspectRatio="xMidYMid meet">
<metadata>
Created by potrace 1.16, written by Peter Selinger 2001-2019
</metadata>
<g transform="translate(0.000000,1512.000000) scale(0.100000,-0.100000)"
fill="white" stroke="none">
<path d="M6790 14380 l-4825 -5 -115 -37 c-224 -72 -370 -145 -526 -264 -294
-224 -511 -561 -597 -929 -40 -169 -50 -285 -44 -478 8 -258 54 -450 161 -673
205 -428 565 -735 1005 -859 52 -14 139 -30 195 -35 132 -12 13286 -12 13461
0 478 32 935 348 1203 832 81 146 158 388 183 574 18 134 7 453 -20 581 -90
430 -349 817 -706 1054 -93 62 -269 145 -390 184 -105 34 -119 36 -320 45
-306 13 -3181 16 -8665 10z m8850 -273 c271 -79 460 -194 648 -392 178 -188
309 -451 360 -719 23 -127 23 -399 -2 -521 -39 -199 -128 -412 -239 -574 -74
-108 -244 -274 -355 -349 -146 -97 -278 -155 -457 -199 -66 -16 -452 -17
-6800 -20 l-6730 -3 -125 35 c-155 45 -272 95 -382 167 -310 202 -520 511
-616 903 -26 105 -25 498 2 610 28 121 72 238 137 365 74 145 136 229 263 355
182 180 361 279 631 350 l90 24 6740 -2 6740 -3 95 -27z"/>
<path d="M1935 8930 c-267 -69 -495 -191 -683 -365 -243 -227 -400 -497 -495
-855 -30 -114 -30 -117 -31 -385 -1 -245 1 -279 22 -369 146 -652 635 -1146
1259 -1273 84 -17 396 -18 6808 -18 l6720 0 114 23 c146 30 268 70 384 128
388 193 677 531 817 953 148 446 116 900 -95 1316 -93 184 -173 295 -314 435
-203 202 -416 323 -726 412 l-80 23 -6795 2 -6795 2 -110 -29z m13724 -240
c400 -105 710 -358 891 -725 117 -240 156 -421 147 -689 -6 -194 -23 -293 -73
-438 -106 -304 -307 -560 -577 -735 -87 -57 -250 -127 -374 -161 l-98 -27
-6710 0 c-7245 0 -6784 -3 -6960 52 -469 148 -816 544 -927 1056 -30 139 -32
438 -5 567 85 393 297 716 602 915 165 108 282 155 485 195 92 17 318 18 6790
19 l6695 1 114 -30z"/>
<path d="M3430 3960 l-1355 -6 -100 -23 c-328 -74 -617 -245 -837 -495 -193
-219 -330 -491 -394 -786 -27 -123 -27 -555 -1 -680 43 -204 146 -448 263
-628 37 -56 103 -132 192 -222 219 -218 395 -326 677 -412 l100 -31 350 -7
c193 -4 3259 -6 6815 -5 6123 1 6469 2 6540 19 477 111 858 413 1078 852 133
266 191 537 179 844 -10 245 -67 470 -176 690 -100 201 -209 348 -364 488
-210 191 -443 310 -726 374 -95 21 -108 21 -1641 28 -1763 9 -8573 8 -10600 0z
m12025 -259 c176 -7 183 -8 305 -50 215 -72 362 -163 520 -321 212 -211 339
-453 399 -759 38 -186 25 -472 -29 -659 -76 -262 -202 -469 -403 -659 -174
-164 -377 -272 -619 -329 -69 -16 -461 -18 -6784 -21 l-6712 -4 -108 26 c-257
63 -459 172 -636 343 -209 202 -341 444 -411 752 -29 130 -31 432 -4 560 29
135 83 286 147 407 170 325 430 546 785 669 107 37 115 38 290 44 260 9 13045
10 13260 1z"/>
</g>
</svg>
