<?xml version="1.0" standalone="no"?>
<!DOCTYPE svg PUBLIC "-//W3C//DTD SVG 20010904//EN"
        "http://www.w3.org/TR/2001/REC-SVG-20010904/DTD/svg10.dtd">
<svg version="1.0" xmlns="http://www.w3.org/2000/svg"
     width="300.000000pt" height="300.000000pt" viewBox="0 0 300.000000 300.000000"
     preserveAspectRatio="xMidYMid meet">
    <metadata>
        Created by potrace 1.10, written by Peter Selinger 2001-2011
    </metadata>
    <g transform="translate(0.000000,300.000000) scale(0.100000,-0.100000)"
       fill="#FFFFFF" stroke="black">
        <path d="M1436 2825 c-8 -41 -47 -75 -87 -75 -33 0 -89 44 -89 70 0 16 -5 17
-32 10 -18 -4 -45 -11 -60 -14 -24 -5 -28 -11 -28 -40 0 -40 -30 -81 -65 -90
-33 -8 -91 17 -100 43 -6 20 -7 20 -60 -6 l-54 -27 6 -42 c5 -38 2 -46 -25
-73 -37 -37 -77 -40 -116 -10 -29 23 -31 22 -94 -29 -23 -18 -23 -19 -6 -48
20 -35 14 -74 -16 -104 -22 -22 -104 -28 -115 -9 -10 15 -20 8 -58 -39 l-34
-44 23 -24 c34 -33 32 -78 -6 -116 -27 -27 -36 -30 -74 -26 l-43 5 -26 -53
c-26 -51 -26 -53 -7 -59 21 -7 50 -53 50 -79 0 -50 -62 -101 -107 -90 -19 5
-23 -1 -33 -52 -10 -48 -10 -59 1 -63 31 -10 69 -60 69 -91 0 -38 -47 -90 -82
-90 -22 0 -23 -4 -23 -60 0 -56 1 -60 23 -60 36 0 82 -52 82 -93 0 -36 -39
-87 -66 -87 -17 0 -17 -5 -3 -70 11 -49 11 -50 49 -50 30 0 44 -6 64 -31 14
-17 26 -39 26 -50 0 -30 -27 -77 -50 -84 -19 -6 -18 -8 7 -60 l27 -54 42 6
c38 5 46 2 73 -25 37 -36 40 -77 10 -116 -22 -28 -21 -31 24 -88 26 -32 31
-35 44 -22 15 14 69 19 98 8 19 -8 45 -55 45 -84 0 -11 -7 -31 -15 -43 -14
-22 -12 -25 33 -59 l47 -37 23 22 c64 59 174 -15 142 -97 -9 -23 -6 -26 47
-50 65 -30 63 -30 63 -12 0 36 85 60 129 36 23 -12 45 -64 38 -90 -4 -16 1
-21 21 -26 44 -10 61 -14 81 -19 14 -4 20 1 24 25 8 37 61 66 101 56 36 -9 66
-45 66 -78 0 -28 0 -28 65 -28 l65 0 0 29 c0 20 9 37 31 55 51 43 110 31 135
-29 l13 -33 61 15 c52 14 60 18 54 35 -9 29 15 77 48 94 39 20 83 10 110 -26
l21 -28 54 26 c39 19 52 30 47 42 -15 35 -14 57 5 87 31 50 98 57 138 14 18
-19 19 -19 62 18 39 33 42 40 32 59 -42 78 35 165 113 126 16 -8 30 -14 32
-14 1 0 19 20 40 45 l37 46 -22 22 c-30 33 -28 90 5 124 22 22 32 25 70 20
l45 -5 25 51 26 50 -26 21 c-36 30 -47 65 -31 103 15 36 44 54 88 56 32 2 35
7 50 83 5 26 2 31 -23 41 -35 13 -64 66 -55 100 8 35 50 73 80 73 24 0 25 2
25 66 0 43 -4 63 -11 59 -18 -12 -69 17 -85 47 -10 18 -13 40 -9 59 7 29 47
69 71 69 10 0 12 9 7 33 -16 79 -17 82 -59 87 -50 7 -63 16 -78 52 -17 41 -9
74 25 103 l29 24 -26 54 c-26 53 -28 54 -55 44 -42 -16 -80 1 -102 44 -19 40
-11 82 20 106 14 11 12 17 -21 58 -38 46 -50 53 -61 35 -11 -18 -81 -11 -109
11 -21 16 -26 29 -26 64 0 24 5 47 10 50 18 11 11 22 -36 60 -40 33 -47 35
-57 22 -31 -41 -105 -41 -137 1 -22 27 -27 87 -8 98 7 4 -12 19 -46 36 l-57
29 -25 -31 c-54 -63 -159 -27 -157 55 1 33 -2 35 -40 45 -23 6 -50 13 -59 16
-12 4 -18 0 -18 -11 0 -29 -55 -75 -90 -75 -40 0 -90 47 -90 84 0 25 -2 26
-59 26 l-59 0 -6 -35z m145 -59 c36 -31 87 -34 129 -9 25 14 36 15 84 4 34 -8
56 -18 56 -26 0 -7 14 -25 31 -39 33 -28 73 -33 112 -15 33 15 127 -31 127
-62 0 -11 14 -34 30 -51 27 -26 36 -29 73 -26 36 4 48 0 85 -29 32 -26 42 -41
42 -63 0 -43 44 -89 91 -96 31 -5 47 -16 73 -48 28 -35 32 -47 28 -83 -3 -37
0 -46 26 -73 17 -16 40 -30 51 -30 15 0 28 -15 47 -51 22 -45 24 -55 14 -80
-17 -41 -5 -94 28 -118 15 -12 32 -25 39 -31 22 -18 28 -100 9 -130 -9 -16
-16 -40 -16 -55 0 -30 24 -81 41 -87 6 -2 14 -27 17 -56 4 -47 2 -55 -27 -87
-35 -40 -42 -97 -16 -131 8 -10 14 -30 15 -44 0 -40 -20 -100 -34 -100 -19 0
-54 -41 -61 -73 -4 -15 -2 -40 5 -58 18 -44 -18 -121 -64 -137 -51 -19 -70
-46 -72 -103 -2 -66 -44 -121 -98 -130 -49 -8 -85 -44 -93 -91 -8 -56 -62 -98
-124 -98 -55 0 -94 -26 -104 -70 -8 -37 -96 -86 -126 -70 -48 26 -121 2 -139
-45 -13 -34 -107 -55 -141 -31 -37 25 -101 21 -129 -9 -20 -21 -33 -25 -81
-25 -48 0 -63 4 -85 25 -32 30 -91 34 -130 9 -22 -15 -32 -15 -79 -5 -39 9
-56 18 -60 32 -8 25 -62 59 -92 59 -12 0 -33 -5 -46 -11 -38 -17 -118 27 -135
75 -16 43 -61 70 -106 63 -45 -7 -126 55 -126 96 0 15 -5 37 -10 48 -13 23
-61 49 -92 49 -38 0 -82 65 -85 124 -1 37 -8 55 -29 77 -15 15 -36 29 -48 31
-26 4 -82 106 -66 122 5 5 10 28 10 50 0 33 -6 45 -40 77 -48 46 -73 128 -47
157 8 9 18 27 21 39 8 25 -13 82 -37 102 -12 9 -17 30 -17 69 0 47 4 60 26 83
32 34 37 98 9 128 -15 17 -15 26 -5 75 9 44 17 59 40 72 45 27 64 90 40 135
-14 26 35 122 65 127 11 2 32 16 48 30 22 21 27 34 27 72 0 37 7 55 32 88 22
28 40 42 56 42 53 0 101 46 102 97 0 45 66 93 128 93 35 0 49 6 73 29 16 16
29 38 29 48 0 27 104 77 130 63 33 -18 77 -11 109 16 17 14 31 32 31 39 0 8
22 18 57 25 48 10 61 10 84 -4 41 -24 95 -21 124 8 13 14 32 27 42 30 37 10
93 -3 124 -28z"/>
        <path d="M1580 2687 c0 -32 -52 -77 -89 -77 -36 0 -77 32 -85 66 -7 25 -9 26
-53 20 -25 -3 -54 -6 -64 -6 -15 0 -19 -8 -19 -35 0 -81 -101 -117 -153 -55
-31 36 -31 36 -95 9 -50 -21 -50 -21 -45 -60 12 -89 -85 -141 -147 -79 -20 20
-20 20 -65 -12 -44 -33 -54 -51 -35 -63 6 -3 10 -24 10 -46 0 -72 -79 -116
-135 -75 -17 12 -22 9 -57 -34 -44 -55 -45 -61 -18 -85 20 -18 27 -66 14 -100
-10 -24 -62 -47 -101 -43 -34 3 -35 2 -59 -56 -28 -70 -28 -66 -11 -66 8 0 23
-10 35 -23 51 -54 10 -147 -63 -147 -32 0 -32 0 -39 -60 -8 -67 -4 -80 24 -80
27 0 60 -47 60 -87 0 -39 -37 -83 -71 -83 -20 0 -21 -3 -14 -62 4 -35 9 -66
11 -69 2 -3 17 -6 35 -7 73 -2 107 -95 54 -147 -13 -14 -28 -25 -34 -25 -5 0
2 -29 17 -65 20 -52 29 -64 41 -59 85 39 165 -73 102 -140 l-24 -25 38 -48
c21 -26 39 -49 40 -51 1 -1 16 5 34 14 77 38 160 -45 117 -119 -9 -16 -15 -31
-14 -32 2 -1 25 -18 52 -38 49 -37 50 -37 70 -18 68 62 169 6 152 -84 -6 -31
-5 -33 50 -54 65 -25 74 -26 74 -8 0 26 40 52 82 52 51 0 92 -42 86 -87 -3
-20 0 -28 11 -29 9 0 40 -4 69 -8 47 -7 52 -6 52 12 0 31 54 77 90 77 34 0 90
-46 90 -74 0 -18 20 -20 92 -10 43 6 44 7 44 41 0 86 125 115 166 39 l13 -23
56 24 56 24 -1 44 c-1 36 4 50 26 72 34 34 88 35 122 4 l22 -21 47 36 c45 35
46 37 30 60 -48 74 52 169 124 119 21 -15 24 -13 64 40 41 55 42 56 22 70 -27
19 -34 62 -18 102 17 40 48 57 94 49 36 -5 36 -5 59 50 27 67 27 70 2 77 -26
7 -52 69 -44 102 8 33 50 65 85 65 30 0 34 11 41 99 3 31 0 35 -28 43 -37 9
-69 65 -58 101 10 34 45 67 71 67 19 0 23 4 19 23 -3 12 -8 43 -11 70 -6 45
-7 47 -39 47 -37 0 -73 29 -82 66 -9 33 18 90 46 99 23 7 22 15 -11 91 -18 40
-21 43 -45 34 -33 -13 -84 8 -103 43 -17 32 -7 93 19 109 18 11 17 14 -13 55
-44 63 -49 65 -85 48 -61 -31 -128 17 -119 85 2 19 7 42 11 50 4 11 -8 27 -44
54 l-51 39 -25 -24 c-60 -57 -151 -8 -142 76 l5 41 -60 24 c-46 18 -62 20 -65
10 -15 -44 -76 -69 -121 -50 -32 13 -65 69 -55 93 4 12 -6 16 -48 22 -29 3
-61 9 -70 11 -14 4 -18 -1 -18 -19z m-153 -67 c35 -27 99 -27 129 1 19 18 29
19 83 13 46 -5 66 -12 79 -29 34 -43 86 -56 135 -34 33 15 141 -29 145 -60 2
-11 17 -32 35 -47 25 -21 38 -25 72 -22 35 4 47 0 89 -32 39 -30 49 -44 51
-71 4 -42 53 -89 94 -89 43 0 101 -81 101 -139 0 -55 14 -80 57 -97 45 -19 91
-113 74 -151 -22 -47 -13 -89 23 -124 29 -27 35 -41 41 -90 6 -50 4 -62 -14
-85 -27 -34 -27 -84 0 -118 19 -24 21 -35 15 -88 -6 -52 -12 -65 -42 -93 -36
-34 -45 -76 -23 -117 8 -15 6 -33 -12 -79 -18 -49 -28 -62 -55 -74 -44 -18
-65 -54 -63 -103 2 -32 -4 -49 -35 -91 -31 -42 -43 -51 -68 -51 -39 0 -88 -48
-88 -87 0 -41 -81 -103 -126 -96 -44 7 -90 -20 -105 -61 -10 -27 -22 -38 -67
-56 -48 -20 -59 -22 -89 -11 -45 17 -87 6 -118 -30 -20 -24 -37 -32 -85 -40
-55 -9 -64 -8 -87 11 -34 26 -92 26 -126 0 -22 -17 -34 -19 -84 -14 -48 6 -63
13 -89 41 -25 26 -39 33 -68 33 -21 0 -46 -5 -56 -10 -14 -7 -34 -5 -75 11
-45 17 -58 27 -69 54 -18 41 -67 69 -110 62 -25 -4 -41 3 -83 34 -44 33 -53
45 -53 70 0 40 -50 89 -91 89 -22 0 -37 11 -68 50 -35 44 -39 54 -34 89 5 36
2 44 -30 76 -19 19 -42 35 -50 35 -8 0 -24 23 -37 56 -20 48 -22 61 -12 88 19
53 14 76 -25 115 -48 48 -57 116 -23 185 24 52 21 93 -10 121 -12 11 -18 26
-15 39 2 12 7 42 10 68 4 35 11 49 26 53 21 7 49 53 49 82 0 10 -6 30 -14 44
-12 23 -11 32 8 79 17 41 31 59 60 75 48 27 70 66 62 110 -6 28 0 40 34 84 23
28 45 49 50 46 5 -3 25 1 44 9 35 15 66 59 66 95 0 11 18 34 41 52 34 27 49
32 86 30 37 -2 48 3 73 28 17 16 30 37 30 46 0 10 21 26 56 42 51 23 59 24 99
13 52 -15 81 -7 118 34 21 22 42 32 76 37 25 3 50 7 54 8 5 0 20 -8 34 -19z"/>
        <path d="M1408 2553 c-30 -3 -38 -8 -38 -24 0 -25 -18 -60 -39 -76 -38 -29
-131 2 -131 44 0 17 -21 14 -82 -12 -34 -14 -36 -17 -31 -50 11 -70 -54 -119
-121 -91 -20 8 -36 20 -36 25 0 18 -15 12 -64 -25 -44 -33 -46 -36 -31 -57 48
-69 -38 -162 -115 -123 -30 15 -30 14 -65 -31 -35 -46 -35 -46 -15 -65 47 -44
35 -113 -24 -142 -28 -14 -43 -16 -59 -9 -20 9 -24 5 -45 -46 -15 -36 -19 -57
-12 -59 6 -2 23 -14 37 -26 54 -46 17 -148 -54 -152 -26 -1 -28 -4 -34 -55 -7
-64 -5 -69 26 -69 31 0 65 -44 65 -85 0 -38 -33 -85 -61 -85 -22 0 -22 -3 -8
-70 10 -49 11 -50 48 -50 86 0 118 -105 49 -161 -20 -15 -20 -16 6 -68 23 -45
29 -50 46 -41 34 18 70 11 101 -19 34 -35 38 -78 10 -112 l-20 -24 41 -42 41
-42 25 20 c71 55 175 -31 132 -111 -9 -16 -2 -23 45 -48 52 -29 55 -29 61 -10
8 25 67 50 99 42 35 -9 65 -50 65 -89 0 -36 6 -40 74 -50 39 -6 46 -5 46 9 0
9 11 28 25 41 49 50 145 18 145 -47 0 -30 1 -30 38 -24 20 3 49 6 63 6 22 0
26 4 26 30 0 71 96 108 147 57 13 -13 25 -29 27 -35 4 -12 18 -9 107 23 10 4
10 10 2 25 -17 32 5 87 42 106 35 18 73 12 105 -18 l22 -20 45 33 c25 18 46
33 46 34 0 2 -7 18 -15 38 -19 46 -4 92 36 112 36 19 60 19 85 0 10 -8 22 -15
25 -15 3 0 20 21 38 46 l33 45 -23 25 c-63 67 10 172 99 143 9 -2 21 15 35 50
17 45 19 55 7 59 -8 3 -24 15 -37 28 -55 55 -4 159 71 145 17 -3 26 23 26 77
0 48 -2 52 -23 52 -88 0 -102 149 -16 167 18 3 28 11 25 18 -2 7 -8 33 -11 59
-7 46 -7 46 -47 46 -82 0 -119 91 -60 150 l28 28 -24 48 c-30 61 -30 60 -44
46 -21 -21 -77 -14 -103 13 -30 29 -34 94 -9 120 16 15 14 20 -26 60 l-43 44
-28 -21 c-21 -16 -35 -19 -64 -14 -44 9 -79 57 -70 96 3 14 7 31 8 39 1 7 -20
25 -46 40 -45 25 -48 25 -58 8 -6 -11 -26 -25 -45 -33 -29 -12 -39 -12 -67 0
-36 15 -63 62 -54 95 4 16 -4 21 -54 34 -52 13 -59 13 -59 0 0 -27 -56 -73
-90 -73 -37 0 -90 47 -90 79 0 22 -1 22 -82 14z m104 -80 c37 -35 96 -38 130
-6 21 19 26 20 73 8 27 -7 54 -21 60 -31 31 -53 79 -74 128 -56 25 9 37 7 77
-13 37 -19 49 -31 53 -55 10 -49 49 -80 100 -80 36 0 48 -6 76 -34 27 -28 33
-43 35 -81 2 -38 7 -52 30 -71 15 -13 38 -24 51 -24 17 0 30 -12 50 -46 26
-43 26 -49 14 -86 -11 -33 -10 -43 4 -73 9 -19 29 -41 45 -49 22 -11 31 -26
40 -67 11 -48 11 -54 -8 -74 -30 -32 -27 -99 6 -132 23 -23 26 -32 22 -75 -4
-36 -11 -53 -28 -65 -41 -29 -60 -120 -29 -139 13 -8 11 -33 -7 -79 -11 -31
-24 -44 -47 -53 -44 -16 -71 -63 -63 -111 5 -31 1 -44 -25 -79 -22 -30 -38
-42 -55 -42 -57 0 -104 -47 -104 -105 0 -36 -72 -85 -116 -78 -49 8 -92 -13
-114 -58 -15 -28 -31 -41 -64 -54 -41 -16 -46 -16 -76 0 -43 22 -92 13 -123
-24 -17 -20 -36 -30 -70 -35 -42 -6 -51 -4 -78 18 -45 38 -76 43 -123 18 -23
-12 -48 -22 -56 -22 -34 0 -90 22 -90 35 0 7 -14 25 -32 40 -27 23 -38 26 -72
21 -67 -10 -77 -8 -117 19 -27 17 -39 33 -39 49 0 38 -46 76 -93 76 -34 0 -48
7 -79 37 -32 31 -38 44 -38 79 0 48 -35 91 -78 96 -34 4 -86 91 -71 119 17 32
10 77 -17 108 -14 17 -32 31 -39 31 -7 0 -18 22 -25 51 -12 47 -11 54 10 91
26 46 22 94 -10 123 -15 14 -20 31 -20 71 0 46 4 56 35 87 39 39 47 86 20 124
-13 18 -13 26 1 67 13 37 24 51 55 66 48 25 62 51 56 104 -3 34 1 48 27 83 21
28 39 42 54 43 31 0 79 26 92 49 5 11 10 33 10 49 0 44 66 87 135 87 58 0 81
14 101 62 10 23 25 36 58 48 42 16 48 16 80 1 19 -9 39 -16 46 -16 24 0 79 33
85 50 6 18 26 24 94 28 15 1 36 -9 53 -25z"/>
        <path d="M1510 2392 c0 -11 -12 -34 -26 -51 -21 -25 -33 -31 -65 -31 -43 0
-89 34 -89 66 0 17 -2 17 -91 -7 -34 -9 -36 -11 -35 -49 2 -83 -97 -128 -149
-68 l-23 26 -51 -34 c-28 -19 -51 -36 -51 -38 0 -1 6 -16 14 -32 31 -62 -16
-130 -84 -121 -19 2 -42 7 -51 11 -11 5 -25 -7 -52 -46 -37 -51 -37 -53 -18
-68 33 -25 43 -66 27 -105 -18 -41 -48 -59 -91 -52 -33 5 -33 5 -48 -56 -16
-63 -15 -77 7 -77 15 0 50 -38 59 -63 9 -24 -16 -83 -41 -96 -12 -6 -31 -11
-43 -11 -17 0 -20 -4 -15 -22 3 -13 6 -45 6 -71 0 -40 3 -48 18 -46 37 3 54
-2 77 -26 41 -40 27 -123 -25 -143 -16 -6 -15 -12 12 -71 22 -49 31 -62 40
-53 18 18 73 14 101 -8 36 -29 42 -64 18 -114 l-21 -41 44 -44 44 -44 27 22
c35 27 75 27 108 1 30 -24 44 -78 28 -108 -9 -18 -4 -22 51 -47 49 -22 62 -25
69 -14 5 8 9 17 9 21 0 11 56 38 79 38 35 0 81 -48 81 -85 0 -31 2 -33 46 -39
83 -11 94 -9 94 19 0 38 42 75 83 75 40 0 87 -33 87 -61 0 -23 8 -23 81 -3 57
16 57 17 52 49 -7 42 11 73 52 91 40 16 89 3 106 -27 9 -18 13 -18 64 18 49
35 52 39 39 57 -21 31 -17 71 12 105 21 25 34 31 64 31 21 0 42 -4 45 -10 13
-20 31 -8 63 41 l33 50 -26 30 c-34 42 -33 83 5 121 24 24 37 29 67 26 36 -3
37 -3 50 47 17 68 16 85 -5 85 -26 0 -52 32 -58 72 -5 27 -1 40 21 66 16 20
36 32 51 32 20 0 24 5 24 33 0 17 -3 49 -6 70 -6 34 -9 37 -39 37 -37 0 -85
46 -85 81 0 23 27 79 38 79 4 0 13 4 20 9 10 6 7 21 -14 69 -23 53 -29 60 -45
52 -33 -18 -70 -11 -100 19 -34 35 -38 77 -10 113 l20 25 -48 47 c-41 41 -49
45 -60 32 -20 -24 -74 -30 -110 -12 -34 18 -46 50 -38 100 5 31 3 34 -50 60
l-56 27 -27 -33 c-23 -27 -34 -33 -70 -33 -34 0 -47 6 -66 28 -14 16 -24 41
-24 58 0 25 -4 29 -27 29 -16 0 -45 3 -65 6 -34 6 -38 4 -38 -14z m143 -87
c38 -37 87 -46 127 -25 14 8 32 4 73 -14 45 -20 57 -30 66 -59 15 -44 49 -67
99 -67 31 0 45 -7 79 -42 34 -35 41 -50 41 -81 0 -44 22 -73 70 -94 43 -18 90
-110 73 -142 -21 -38 -13 -79 23 -118 28 -32 34 -47 37 -95 3 -48 1 -60 -19
-81 -29 -30 -32 -83 -7 -120 15 -23 15 -30 1 -83 -8 -33 -21 -61 -28 -63 -7
-2 -25 -17 -41 -32 -24 -24 -28 -36 -26 -77 3 -65 -43 -136 -95 -146 -44 -8
-86 -50 -86 -87 0 -23 -10 -36 -47 -63 -42 -31 -53 -34 -90 -29 -50 7 -84 -11
-107 -56 -12 -23 -27 -31 -75 -43 -51 -13 -62 -13 -72 -2 -19 23 -73 28 -108
10 -17 -9 -31 -21 -31 -26 0 -6 -27 -10 -59 -10 -53 0 -64 4 -101 35 -44 36
-84 45 -121 25 -28 -15 -139 35 -139 62 0 11 -13 33 -29 49 -22 22 -39 29 -68
29 -33 0 -46 7 -81 43 -34 35 -42 50 -42 81 0 43 -44 96 -80 96 -16 0 -27 14
-47 56 -23 51 -24 60 -13 94 15 46 6 76 -32 112 -23 22 -31 38 -35 83 -5 48
-3 59 16 79 31 33 38 87 15 124 -15 27 -16 37 -5 86 10 46 18 58 47 75 40 24
58 62 50 111 -5 28 0 44 26 82 26 37 39 47 69 52 44 7 89 54 89 94 0 41 81 94
131 86 46 -8 92 15 108 55 10 22 22 31 56 40 58 15 76 14 114 -5 37 -18 81
-12 107 17 13 14 30 19 74 19 52 0 60 -3 93 -35z"/>
        <path d="M1335 2241 c-26 -5 -30 -11 -32 -40 -2 -55 -32 -85 -85 -89 -39 -3
-49 1 -67 24 l-21 26 -50 -32 c-47 -30 -49 -33 -35 -53 50 -72 -46 -172 -119
-124 -24 16 -25 15 -54 -30 l-31 -47 24 -22 c13 -12 27 -33 30 -46 14 -55 -39
-114 -95 -106 -28 4 -30 2 -40 -44 -13 -64 -13 -68 6 -68 28 0 74 -56 74 -90
0 -34 -46 -90 -74 -90 -19 0 -19 -4 -6 -67 11 -48 11 -49 45 -45 28 3 40 -2
65 -26 42 -42 37 -93 -11 -132 -18 -14 -17 -17 12 -62 29 -45 32 -47 52 -33
34 24 75 18 108 -14 33 -33 39 -83 14 -111 -15 -16 -12 -20 34 -50 l50 -32 24
28 c52 60 149 20 151 -63 1 -34 4 -39 31 -44 60 -13 74 -10 81 16 8 33 50 65
85 65 34 0 89 -44 89 -72 0 -18 4 -20 46 -13 67 10 71 12 66 44 -5 38 11 67
49 87 36 18 84 7 110 -28 l16 -21 46 32 c45 30 45 32 31 59 -19 36 -18 51 6
89 24 40 77 54 115 29 24 -16 25 -15 56 30 l31 46 -26 27 c-57 59 -19 151 62
151 l39 0 9 53 c9 52 9 52 -21 62 -19 6 -37 24 -50 48 l-20 37 20 38 c13 23
31 41 50 47 30 10 30 10 21 63 l-9 52 -39 0 c-81 0 -119 92 -62 151 l26 27
-32 46 c-30 44 -32 46 -53 31 -69 -48 -162 38 -124 115 l16 30 -46 31 -46 32
-16 -22 c-23 -30 -70 -42 -108 -26 -32 14 -59 63 -50 94 6 22 -2 27 -67 36
-37 6 -46 4 -46 -8 0 -25 -39 -65 -69 -72 -40 -8 -85 16 -101 55 -13 31 -24
34 -85 21z m105 -71 c33 -26 90 -26 124 1 22 17 35 20 72 14 35 -5 47 -12 59
-35 25 -48 91 -73 134 -51 25 14 101 -36 101 -67 0 -52 46 -101 95 -102 25 0
36 -8 58 -42 16 -25 25 -49 21 -58 -23 -54 -5 -109 45 -134 44 -23 55 -90 21
-133 -26 -33 -26 -90 0 -123 34 -44 23 -113 -22 -136 -42 -22 -65 -76 -50
-116 10 -28 9 -36 -16 -75 -23 -37 -32 -43 -60 -43 -45 0 -92 -46 -92 -89 0
-25 -8 -37 -41 -61 -32 -23 -45 -27 -59 -20 -46 25 -120 -3 -135 -49 -6 -20
-52 -41 -87 -41 -11 0 -31 9 -45 20 -34 26 -92 26 -126 0 -14 -11 -31 -20 -39
-20 -32 0 -88 22 -88 35 0 7 -14 25 -32 40 -29 24 -38 27 -83 21 -44 -5 -56
-2 -88 20 -30 20 -37 31 -37 58 0 42 -46 86 -90 86 -23 0 -35 9 -54 37 -22 32
-25 44 -20 88 6 45 3 54 -21 83 -15 18 -33 32 -40 32 -14 0 -19 11 -30 67 -5
24 -1 39 16 63 29 39 29 93 0 124 -18 19 -21 30 -15 65 4 24 13 48 22 54 68
55 75 66 68 120 -5 46 -2 58 20 90 19 29 31 37 55 37 42 0 89 48 89 89 0 26 8
36 46 61 36 22 51 27 65 20 44 -24 110 5 129 56 8 21 27 29 85 32 11 1 31 -7
45 -18z"/>
        <path d="M1440 2060 c-139 -18 -235 -65 -336 -165 -221 -221 -221 -567 1 -791
113 -113 236 -164 401 -164 326 0 577 268 558 598 -17 314 -313 561 -624 522z
m184 -66 c227 -59 386 -262 386 -494 0 -279 -231 -509 -510 -510 -300 -1 -546
284 -501 580 45 298 339 498 625 424z"/>
        <path d="M1388 1975 c-120 -30 -231 -111 -299 -216 -96 -151 -96 -368 1 -519
44 -69 129 -144 204 -180 321 -153 695 84 696 440 0 208 -131 393 -328 461
-76 26 -200 33 -274 14z m253 -25 c128 -39 225 -123 286 -248 38 -76 38 -76
38 -202 0 -125 0 -126 -38 -202 -83 -169 -241 -268 -427 -268 -284 0 -506 260
-463 540 29 183 166 338 343 386 70 20 189 17 261 -6z"/>
        <path d="M1395 1847 c-98 -33 -176 -101 -222 -195 -25 -50 -28 -68 -28 -152 0
-84 3 -102 28 -152 36 -74 107 -144 177 -177 48 -23 68 -26 155 -26 122 0 171
21 256 105 72 71 101 143 101 250 0 107 -29 179 -101 250 -78 77 -135 103
-241 107 -52 2 -100 -2 -125 -10z m230 -28 c32 -12 77 -41 108 -69 143 -130
149 -349 14 -488 -136 -141 -365 -139 -497 4 -67 73 -85 122 -85 234 0 86 3
101 30 154 35 70 110 139 180 166 69 26 177 26 250 -1z"/>
        <path d="M1470 1815 c-46 -27 -65 -33 -76 -24 -6 5 -24 1 -44 -10 -34 -18 -43
-29 -54 -63 -3 -10 -15 -18 -26 -18 -29 0 -62 -57 -55 -96 4 -22 0 -37 -15
-54 -26 -30 -26 -74 1 -99 16 -15 19 -26 14 -50 -8 -38 28 -106 52 -96 21 8
45 -14 38 -36 -4 -13 5 -24 37 -43 27 -16 46 -22 52 -16 16 16 45 11 56 -10
16 -29 82 -28 110 2 17 18 24 20 39 11 15 -9 26 -8 52 6 33 18 42 29 53 64 3
9 14 17 24 17 33 0 81 71 64 93 -11 14 2 57 18 57 17 0 12 89 -6 107 -10 10
-14 26 -11 42 7 34 -29 99 -57 103 -11 2 -26 15 -33 29 -20 42 -49 61 -90 61
-21 0 -45 6 -53 13 -25 22 -63 26 -90 10z m70 -29 c0 -19 60 -32 70 -16 13 20
70 -16 70 -44 0 -27 25 -51 52 -51 26 0 58 -52 39 -64 -21 -13 -5 -71 20 -71
13 0 19 -7 19 -24 0 -34 -10 -56 -25 -56 -18 0 -31 -60 -15 -70 19 -11 -16
-73 -37 -66 -22 9 -62 -30 -56 -54 6 -23 -48 -55 -65 -38 -14 14 -72 0 -72
-18 0 -10 -12 -14 -40 -14 -29 0 -40 4 -40 15 0 19 -46 31 -64 16 -18 -15 -79
17 -71 38 8 19 -32 60 -54 54 -22 -6 -58 62 -37 70 20 8 7 59 -15 64 -14 4
-19 15 -19 43 0 28 5 39 19 43 23 6 34 54 14 65 -21 12 15 74 39 68 21 -5 60
36 53 55 -8 22 51 54 70 39 19 -16 65 -4 65 15 0 11 11 15 40 15 28 0 40 -4
40 -14z"/>
    </g>
</svg>
